<?xml version="1.0" encoding="utf-8"?>
<!-- Generator: Adobe Illustrator 14.0.0, SVG Export Plug-In . SVG Version: 6.00 Build 43363)  -->
<!DOCTYPE svg PUBLIC "-//W3C//DTD SVG 1.1//EN" "http://www.w3.org/Graphics/SVG/1.1/DTD/svg11.dtd">
<svg version="1.1" id="Lager_1" xmlns="http://www.w3.org/2000/svg" xmlns:xlink="http://www.w3.org/1999/xlink" x="0px" y="0px"
	 width="222px" height="67px" viewBox="0 0 222 67" enable-background="new 0 0 222 67" xml:space="preserve">
<g>
	<polygon fill="#635C5C" points="92.219,43.549 85.459,65.932 79.825,65.932 73.102,43.549 78.682,43.549 83.161,59.553 
		87.825,43.549 	"/>
	<polygon fill="#635C5C" points="113.581,47.812 102.925,47.812 102.925,52.405 111.302,52.405 111.302,56.616 102.925,56.616 
		102.925,61.506 113.581,61.506 113.581,65.932 97.596,65.932 97.596,43.549 113.581,43.549 	"/>
	<path fill="#635C5C" d="M125.368,57.06v8.872h-5.279V43.549h9.838c1.812,0,3.27,0.21,4.371,0.632
		c1.098,0.422,2.01,1.193,2.729,2.318c0.723,1.126,1.082,2.378,1.082,3.752c0,2.687-1.295,4.616-3.885,5.785l4.133,9.896h-5.795
		l-3.436-8.872H125.368z M125.368,47.533v5.705h3.213c1.053,0,1.812-0.072,2.289-0.221c0.475-0.148,0.898-0.474,1.27-0.981
		c0.371-0.51,0.557-1.092,0.557-1.748c0-0.623-0.186-1.181-0.557-1.671c-0.373-0.492-0.775-0.797-1.213-0.91
		c-0.436-0.115-1.256-0.174-2.459-0.174H125.368z"/>
	<rect x="145.519" y="43.551" fill="#635C5C" width="5.229" height="22.381"/>
	<path fill="#635C5C" d="M174.06,48.469l-4.457,1.491c-0.602-1.771-1.873-2.655-3.812-2.655c-2.072,0-3.109,0.672-3.109,2.018
		c0,0.534,0.195,0.989,0.582,1.36c0.389,0.373,1.264,0.693,2.629,0.969c2.279,0.461,3.951,0.928,5.01,1.394
		c1.059,0.473,1.949,1.229,2.678,2.273c0.727,1.042,1.088,2.208,1.088,3.498c0,2.023-0.779,3.771-2.334,5.247
		c-1.557,1.476-3.865,2.214-6.922,2.214c-2.293,0-4.246-0.521-5.855-1.566c-1.611-1.044-2.672-2.595-3.188-4.648l4.852-1.1
		c0.547,2.088,2.062,3.132,4.553,3.132c1.199,0,2.094-0.23,2.682-0.696c0.59-0.465,0.885-1.02,0.885-1.664
		c0-0.656-0.268-1.163-0.803-1.524c-0.533-0.359-1.566-0.699-3.094-1.018c-2.85-0.592-4.881-1.396-6.092-2.419
		c-1.211-1.023-1.816-2.517-1.816-4.485c0-1.987,0.723-3.666,2.17-5.031c1.447-1.367,3.41-2.05,5.889-2.05
		C169.981,43.205,172.804,44.96,174.06,48.469"/>
	<polygon fill="#635C5C" points="197.438,47.812 186.78,47.812 186.78,52.405 195.161,52.405 195.161,56.616 186.78,56.616 
		186.78,61.506 197.438,61.506 197.438,65.932 181.452,65.932 181.452,43.549 197.438,43.549 	"/>
	<path fill="#635C5C" d="M221.999,51.88l-5.494,0.346c-0.076-3.159-1.309-4.741-3.693-4.741c-2.742,0-4.111,2.433-4.111,7.299
		c0,2.81,0.373,4.713,1.119,5.713c0.744,1.002,1.785,1.501,3.123,1.501c2.168,0,3.492-1.409,3.975-4.229l5.082,0.311
		c-0.326,2.679-1.324,4.715-2.99,6.107c-1.668,1.396-3.711,2.093-6.125,2.093c-2.963,0-5.369-1.021-7.223-3.067
		c-1.854-2.044-2.781-4.869-2.781-8.476c0-3.38,0.896-6.143,2.689-8.298c1.795-2.152,4.24-3.229,7.348-3.229
		C218.294,43.205,221.321,46.099,221.999,51.88"/>
	<path fill="#BA0D2A" d="M94.116,3.369C91.842,1.094,89.116,0,85.899,0c-3.057,0-5.645,1.1-7.859,3.201
		c-3.775,3.584-3.538,8.768-4.523,13.452c-3.35,15.95-14.981,26.257-27.809,26.231c-13.771-0.023-22.975-8.581-22.721-22.877
		c-0.125-3.038-1.337-5.549-3.54-7.639c-2.214-2.102-4.801-3.199-7.859-3.199c-3.212,0-5.943,1.094-8.215,3.369
		C1.143,14.768,0,17.41,0,20.565c0,3.214,1.095,5.943,3.372,8.218c2.271,2.272,5.002,3.372,8.215,3.372
		c12.866-0.11,22.5,8.979,22.975,21.71c0.023,6.807,4.552,12.035,11.166,11.977c6.701-0.057,11.429-3.058,11.557-11.949
		c0.221-14.989,18.544-28.861,30.041-30.795c2.602-0.438,4.497-1.428,6.79-3.484c2.275-2.271,3.37-5.004,3.37-8.214
		C97.485,8.242,96.346,5.599,94.116,3.369"/>
	<path fill="#BBB0A4" d="M45.661,31.885c3.083,0,5.736-1.115,7.962-3.342s3.339-4.938,3.339-8.132c0-3.085-1.113-5.735-3.339-7.964
		c-2.226-2.228-4.879-3.338-7.962-3.338c-3.198,0-5.908,1.11-8.133,3.338c-2.224,2.228-3.34,4.879-3.34,7.964
		c0,3.194,1.117,5.905,3.34,8.132C39.753,30.77,42.463,31.885,45.661,31.885"/>
</g>
</svg>
